<?xml version="1.0" encoding="UTF-8"?>
<!DOCTYPE svg PUBLIC "-//W3C//DTD SVG 1.1//EN" "http://www.w3.org/Graphics/SVG/1.1/DTD/svg11.dtd">
<!-- Creator: CorelDRAW 2021 (64 Bit) -->
<svg xmlns="http://www.w3.org/2000/svg" xml:space="preserve" width="46.3264mm" height="11.1143mm" version="1.1" style="shape-rendering:geometricPrecision; text-rendering:geometricPrecision; image-rendering:optimizeQuality; fill-rule:evenodd; clip-rule:evenodd"
viewBox="0 0 4748.84 1139.31"
 xmlns:xlink="http://www.w3.org/1999/xlink"
 xmlns:xodm="http://www.corel.com/coreldraw/odm/2003">
 <defs>
  <style type="text/css">
   <![CDATA[
    .fil1 {fill:#FEFEFE}
    .fil0 {fill:#FF7200}
   ]]>
  </style>
 </defs>
 <g id="Camada_x0020_1">
  <metadata id="CorelCorpID_0Corel-Layer"/>
  <g id="_1619953955936">
   <path class="fil0" d="M-0 0l345.14 0 0 1139.31 -345.14 0 0 -1139.31zm449.05 0l853.55 0 0 455.17 -129.23 127.59 129.23 109.1 0 447.45 -853.55 0 0 -447.45 116.41 -109.1 -116.41 -126.75 0 -456.01zm341.41 267.2l170.71 0 0 174.43 -170.71 0 0 -174.43zm0 443.47l170.71 0 0 174.43 -170.71 0 0 -174.43zm638.32 -710.67l836.03 0 0 1139.31 -836.03 0 0 -1139.31zm324.82 262.14l182.71 0 0 616.4 -182.71 0 0 -616.4zm642.7 -262.14l325.82 0 0 1139.31 -325.82 0 0 -1139.31z"/>
   <path class="fil1" d="M2991.03 107.5l120.33 0 0 76.93 143.58 0 0 -184.43 -414.87 0 0 563.83 414.87 0 0 -197.83 -143.58 0 0 79.35 -120.33 0 0 -337.85zm339.93 -107.5l413.82 0 0 563.83 -413.82 0 0 -563.83zm145.68 107.5l122.45 0 0 337.85 -122.45 0 0 -337.85zm335.61 -107.5l305.47 0 108.34 107.88 0 455.95 -413.82 0 0 -563.83zm145.68 107.5l122.45 0 0 337.85 -122.45 0 0 -337.85zm369.47 -107.5l421.43 0 0 107.5 -266.27 0 0 118.41 266.27 0 0 100.09 -266.27 0 0 119.35 266.27 0 0 118.48 -421.43 0 0 -563.83zm-1495.3 634.23l62.45 0 62.45 0 245.2 0 0 97.27 -245.2 0 0 105.24 245.2 0 0 97.27 -245.2 0 0 205.3 -124.9 0 0 -505.08zm436.21 0l369.17 0 0 505.08 -121.22 0 0 -208.42 -126.73 0 0 208.42 -121.23 0 0 -505.08zm122.14 97.27l124.9 0 0 105.24 -124.9 0 0 -105.24zm315.12 -97.27l369.17 0 0 201.9 -62.21 49.52 62.21 45.3 0 208.36 -121.22 0 0 -208.42 -126.73 0 0 208.42 -121.23 0 0 -505.08zm122.14 97.27l124.9 0 0 105.24 -124.9 0 0 -105.24zm315.78 -97.27l41.33 0 74.42 0 126.78 0 115.75 0 130.44 0 94.63 0 21.13 0 0 505.08 -115.75 0 0 -407.81 -130.44 0 0 407.81 -115.75 0 0 -407.81 -126.78 0 0 407.81 -115.75 0 0 -505.08z"/>
  </g>
 </g>
</svg>
